<svg xmlns="http://www.w3.org/2000/svg" width="128" height="128" viewBox="0 0 128 128">
  <title>BIRTHDAY CAKE</title>
  <g>
    <path d="M11.307,112.218H116.693a5,5,0,0,1,5,5v4.475a0,0,0,0,1,0,0H6.307a0,0,0,0,1,0,0v-4.475A5,5,0,0,1,11.307,112.218Z" transform="translate(128 233.912) rotate(180)" fill="#8ac9fe"/>
    <path d="M15.48,112.218V72.111a4,4,0,0,1,4-4.005h89.03a4,4,0,0,1,4,4.005v40.107Z" fill="#eaf6ff"/>
    <path d="M28.584,68.106V38.539a4,4,0,0,1,4-4H95.416a4,4,0,0,1,4,4V68.106Z" fill="#fcd1e8"/>
    <path d="M71.5,16.728a3.808,3.808,0,0,0,4.994,0,5.164,5.164,0,0,0,1.427-5.112C77.32,8.516,74,6.307,74,6.307s-3.32,2.209-3.924,5.309A5.164,5.164,0,0,0,71.5,16.728Z" fill="#ffb65f"/>
    <rect x="69.933" y="22.46" width="8.134" height="12.078" fill="#f07281"/>
    <path d="M51.5,16.728a3.808,3.808,0,0,0,4.994,0,5.164,5.164,0,0,0,1.427-5.112C57.32,8.516,54,6.307,54,6.307s-3.32,2.209-3.924,5.309A5.164,5.164,0,0,0,51.5,16.728Z" fill="#ffb65f"/>
    <rect x="49.933" y="22.46" width="8.134" height="12.078" fill="#f07281"/>
    <path d="M99.416,38.54V50.02a7.244,7.244,0,0,1-10.12,0,7.244,7.244,0,0,0-10.12,0,7.244,7.244,0,0,1-10.12,0,7.244,7.244,0,0,0-10.12,0,7.232,7.232,0,0,1-10.11,0,7.244,7.244,0,0,0-10.12,0,7.257,7.257,0,0,1-10.12,0V38.54a4,4,0,0,1,4-4h62.83A4,4,0,0,1,99.416,38.54Z" fill="#dc8758"/>
    <path d="M112.516,72.11V83.72a7.7,7.7,0,0,1-10.78,0,7.728,7.728,0,0,0-10.78,0,7.7,7.7,0,0,1-10.78,0,7.74,7.74,0,0,0-10.79,0,7.7,7.7,0,0,1-10.78,0,7.728,7.728,0,0,0-10.78,0,7.7,7.7,0,0,1-10.78,0,7.728,7.728,0,0,0-10.78,0,7.721,7.721,0,0,1-10.79,0V72.11a4.007,4.007,0,0,1,4.01-4h89.03A4,4,0,0,1,112.516,72.11Z" fill="#dc8758"/>
    <rect x="15.48" y="99.066" width="97.039" height="13.146" fill="#fcd1e8"/>
    <g>
      <path d="M91.829,119.943h-4.5a1.75,1.75,0,0,0,0,3.5h4.5a1.75,1.75,0,0,0,0-3.5Z"/>
      <path d="M121.693,110.468h-7.424V72.111a5.762,5.762,0,0,0-5.754-5.755h-7.349V38.539a5.756,5.756,0,0,0-5.75-5.75h-15.6V22.46a1.75,1.75,0,0,0-1.75-1.75H75.75v-1.6a5.35,5.35,0,0,0,1.911-1.079,6.9,6.9,0,0,0,1.982-6.754c-.724-3.71-4.272-6.163-4.673-6.431a1.751,1.751,0,0,0-1.94,0c-.4.268-3.949,2.721-4.673,6.432a6.9,6.9,0,0,0,1.982,6.753h0a5.338,5.338,0,0,0,1.911,1.08v1.6H69.934a1.75,1.75,0,0,0-1.75,1.75V32.789H59.817V22.46a1.751,1.751,0,0,0-1.75-1.75H55.75v-1.6a5.359,5.359,0,0,0,1.911-1.079,6.9,6.9,0,0,0,1.981-6.754c-.724-3.71-4.27-6.163-4.673-6.431a1.748,1.748,0,0,0-1.938,0c-.4.268-3.95,2.721-4.673,6.431a6.9,6.9,0,0,0,1.981,6.753,5.346,5.346,0,0,0,1.911,1.08v1.6H49.933a1.751,1.751,0,0,0-1.75,1.75V32.789h-15.6a5.757,5.757,0,0,0-5.75,5.75v20.2a1.75,1.75,0,0,0,3.5,0V53.21a8.944,8.944,0,0,0,9.591-1.937,5.467,5.467,0,0,1,7.676,0,8.949,8.949,0,0,0,12.562,0,5.467,5.467,0,0,1,7.676,0,8.95,8.95,0,0,0,12.562,0,5.467,5.467,0,0,1,7.676,0,8.933,8.933,0,0,0,9.59,1.937V66.356H19.485a5.762,5.762,0,0,0-5.755,5.755v38.357H6.307a1.751,1.751,0,0,0-1.75,1.75v4.475a6.758,6.758,0,0,0,6.75,6.75H78.093a1.75,1.75,0,0,0,0-3.5H11.307a3.254,3.254,0,0,1-3.25-3.25v-2.725H119.943v2.725a3.254,3.254,0,0,1-3.25,3.25H101.485a1.75,1.75,0,0,0,0,3.5h15.208a6.758,6.758,0,0,0,6.75-6.75v-4.475A1.75,1.75,0,0,0,121.693,110.468Zm-49.9-98.517A6.933,6.933,0,0,1,74,8.549a6.823,6.823,0,0,1,2.208,3.4,3.461,3.461,0,0,1-.874,3.47,2,2,0,0,1-1.328.49H74a2,2,0,0,1-1.328-.49h0A3.459,3.459,0,0,1,71.793,11.951Zm-20,0a6.957,6.957,0,0,1,2.2-3.4,6.814,6.814,0,0,1,2.208,3.4,3.462,3.462,0,0,1-.873,3.47,2,2,0,0,1-1.328.49H54a2,2,0,0,1-1.328-.49h0A3.461,3.461,0,0,1,51.793,11.951ZM71.684,24.21h4.632v8.579H71.684Zm-20,0h4.634v8.579H51.683ZM90.519,48.766a8.95,8.95,0,0,0-12.562,0,5.467,5.467,0,0,1-7.676,0,8.949,8.949,0,0,0-12.562,0,5.469,5.469,0,0,1-7.676,0,8.949,8.949,0,0,0-12.562,0,5.446,5.446,0,0,1-7.148.423V38.539a2.253,2.253,0,0,1,2.25-2.25H95.416a2.253,2.253,0,0,1,2.25,2.25V49.19A5.445,5.445,0,0,1,90.519,48.766ZM17.23,86.945a9.413,9.413,0,0,0,10.254-1.97,5.941,5.941,0,0,1,8.339,0,9.422,9.422,0,0,0,13.225,0,5.94,5.94,0,0,1,8.339,0,9.42,9.42,0,0,0,13.225,0,5.939,5.939,0,0,1,8.339,0,9.422,9.422,0,0,0,13.226,0,5.939,5.939,0,0,1,8.339,0,9.411,9.411,0,0,0,10.253,1.97V97.316H17.23Zm2.255-17.089h89.03a2.257,2.257,0,0,1,2.254,2.255V82.892a5.918,5.918,0,0,1-7.81-.423,9.422,9.422,0,0,0-13.226,0,5.942,5.942,0,0,1-8.339,0,9.421,9.421,0,0,0-13.225,0,5.939,5.939,0,0,1-8.339,0,9.422,9.422,0,0,0-13.225,0,5.94,5.94,0,0,1-8.339,0,9.423,9.423,0,0,0-13.226,0,5.916,5.916,0,0,1-7.81.423V72.111A2.258,2.258,0,0,1,19.485,69.856Zm-2.255,30.96h93.539v9.652H17.23Z"/>
      <polygon points="50.339 18.035 50.339 18.034 50.339 18.034 50.339 18.035"/>
    </g>
  </g>
</svg>
